/* XPM */
static const char *output_0[] = {
/* columns rows colors chars-per-pixel */
"32 32 21 1 ",
"  c black",
". c #534A39",
"X c #574E3D",
"o c #5B5242",
"O c #5B5342",
"+ c #5D5545",
"@ c #654B4B",
"# c #605848",
"$ c #615949",
"% c #62584A",
"& c #625A4A",
"* c #686050",
"= c #726B5C",
"- c #7C715A",
"; c #6C6C6C",
": c #80745D",
"> c #877B63",
", c #8F8269",
"< c #95886E",
"1 c #CABA99",
"2 c #A3D0D4",
/* pixels */
"22222222222222222222222222222222",
"22222222222222222222222222222222",
"22222222222222222222222222222222",
"22222222222222222222222222222222",
"22222222222222222222222222222222",
"22222222222222222222222222222222",
"22222222222222222222222222222222",
"22222222222222222222222222222222",
"22222222222222222222222222222222",
"22222222222222222222222222222222",
"22222222222222222222222222222222",
"22222222222222222222222222222222",
"22222222222222222222222222222222",
"22222222222222222222222222222222",
"22222222222222222222222222222222",
"222222222222222222222222..222222",
"22222222222222222222222.1-.22222",
"2222222222222222222...2.:>.22222",
"222222222222222222.111.....22222",
"222222222222.......11<......2222",
"2222222222.........1,........222",
"222222222................; ...22",
"222222222................  ....2",
"2222222........................@",
"...22..2.......................2",
"222...222..*===========O.2222222",
"2222222222XO%%%%%%%%%%%+22222222",
"222222222222222@2222@22222222222",
"22222222222222@2@22@2@2222222222",
"22222222222222222222222222222222",
"22222222222222222222222222222222",
"22222222222222222222222222222222"
};
