/* XPM */
static const char *output_2[] = {
/* columns rows colors chars-per-pixel */
"32 32 16 1 ",
"  c black",
". c #534A39",
"X c #574E3D",
"o c #5B5242",
"O c #5B5342",
"+ c #5D5545",
"@ c #654B4B",
"# c #615949",
"$ c #686050",
"% c #726B5C",
"& c #7C715A",
"* c #6C6C6C",
"= c #80745D",
"- c #877B63",
"; c #CABA99",
": c None",
/* pixels */
"::::::::::::::::::::::::::::::::",
"::::::::::::::::::::::::::::::::",
"::::::::::::::::::::::::::::::::",
"::::::::::::::::::::::::::::::::",
"::::::::::::::::::::::::::::::::",
"::::::::::::::::::::::::::::::::",
"::::::::::::::::::::::::::::::::",
"::::::::::::::::::::::::::::::::",
"::::::::::::::::::::::::::::::::",
"::::::::::::::::::::::::::::::::",
"::::::::::::::::::::::::::::::::",
"::::::::::::::::::::::::::::::::",
"::::::::::::::::::::::::::::::::",
"::::::::::::::::::::::::::::::::",
"::::::::::::::::::::::::::::::::",
"::..::::::::::::::::::::::::::::",
":.;&.:::::::::::::::::::::::::::",
":.=-.:::::::::::::::::::::::::::",
".....:::::::::::::::::::::::::::",
"......::::::::::::::::::::::::::",
".......:::::::::::::::::::::::..",
"...* ...:::::::::::::::::::::...",
"...  ....::::::::::::::::::::...",
".........@:::::::::::::::.......",
".........:::::::::::::::.:::....",
"%o.:::::::::::::::::....:::::..$",
"#+::::::::::::::::::::::::::::Xo",
"@:::::::::::::::::::::::::::::::",
":@::::::::::::::::::::::::::::::",
"::::::::::::::::::::::::::::::::",
"::::::::::::::::::::::::::::::::",
"::::::::::::::::::::::::::::::::"
};
