/* XPM */
static const char *output_1[] = {
/* columns rows colors chars-per-pixel */
"32 32 13 1 ",
"  c #534A39",
". c #574E3D",
"X c #5B5342",
"o c #654B4B",
"O c #605848",
"+ c #62584A",
"@ c #625A4A",
"# c #686050",
"$ c #726B5C",
"% c #8F8269",
"& c #95886E",
"* c #CABA99",
"= c None",
/* pixels */
"================================",
"================================",
"================================",
"================================",
"================================",
"================================",
"================================",
"================================",
"================================",
"================================",
"================================",
"================================",
"================================",
"================================",
"================================",
"================================",
"================================",
"=============================   ",
"============================ ***",
"======================       **&",
"====================         *% ",
"===================             ",
"==========  =======             ",
"============ =====              ",
"=============                   ",
"===================  #$$$$$$$$$$",
"====================.X@@@@@@@@@@",
"===========================o====",
"==========================o=o==o",
"================================",
"================================",
"================================"
};
