/* XPM */
static const char *output_3[] = {
/* columns rows colors chars-per-pixel */
"32 32 18 1 ",
"  c black",
". c #534A39",
"X c #5B5242",
"o c #5D5545",
"O c #654B4B",
"+ c #605848",
"@ c #615949",
"# c #62584A",
"$ c #625A4A",
"% c #726B5C",
"& c #7C715A",
"* c #6C6C6C",
"= c #80745D",
"- c #877B63",
"; c #8F8269",
": c #95886E",
"> c #CABA99",
", c None",
/* pixels */
",,,,,,,,,,,,,,,,,,,,,,,,,,,,,,,,",
",,,,,,,,,,,,,,,,,,,,,,,,,,,,,,,,",
",,,,,,,,,,,,,,,,,,,,,,,,,,,,,,,,",
",,,,,,,,,,,,,,,,,,,,,,,,,,,,,,,,",
",,,,,,,,,,,,,,,,,,,,,,,,,,,,,,,,",
",,,,,,,,,,,,,,,,,,,,,,,,,,,,,,,,",
",,,,,,,,,,,,,,,,,,,,,,,,,,,,,,,,",
",,,,,,,,,,,,,,,,,,,,,,,,,,,,,,,,",
",,,,,,,,,,,,,,,,,,,,,,,,,,,,,,,,",
",,,,,,,,,,,,,,,,,,,,,,,,,,,,,,,,",
",,,,,,,,,,,,,,,,,,,,,,,,,,,,,,,,",
",,,,,,,,,,,,,,,,,,,,,,,,,,,,,,,,",
",,,,,,,,,,,,,,,,,,,,,,,,,,,,,,,,",
",,,,,,,,,,,,,,,,,,,,,,,,,,,,,,,,",
",,,,,,,,,,,,,,,,,,,,,,,,,,,,,,,,",
",,,,,,,,,,,,..,,,,,,,,,,,,,,,,,,",
",,,,,,,,,,,.>&.,,,,,,,,,,,,,,,,,",
",,,,,,,...,.=-.,,,,,,,,,,,,,,,,,",
",,,,,,.>>>.....,,,,,,,,,,,,,,,,,",
".......>>:......,,,,,,,,,,,,,,,,",
".......>;........,,,,,,,,,,,,,,,",
".............* ...,,,,,,,,,,,,,,",
".............  ....,,,,,,,,,,,,,",
"...................O,,,,,,,,,,,,",
"...................,,,,,,,,,,,,,",
"%%%%%%%%%%%X.,,,,,,,,,,,,,,,,,..",
"###########o,,,,,,,,,,,,,,,,,,,,",
",,,O,,,,O,,,,,,,,,,,,,,,,,,,,,,,",
",,O,O,,O,O,,,,,,,,,,,,,,,,,,,,,,",
",,,,,,,,,,,,,,,,,,,,,,,,,,,,,,,,",
",,,,,,,,,,,,,,,,,,,,,,,,,,,,,,,,",
",,,,,,,,,,,,,,,,,,,,,,,,,,,,,,,,"
};
