/* XPM */
static char *_16dd26f08fc4205fc325fc809abf5239mGQP1x2B22AZlHI[] = {
/* columns rows colors chars-per-pixel */
"64 64 13 1 ",
"  c None",
". c black",
"X c #241D0D",
"o c #222124",
"O c #714333",
"+ c #82634B",
"@ c #8A7357",
"# c #928263",
"$ c #A38D77",
"% c #A67596",
"& c #A99D86",
"* c #B9A48F",
"= c #C89E8F",
/* pixels */
"                                                                ",
"                                                                ",
"                        oooo        oooo                        ",
"                        oooo        oooo                        ",
"                      oo****oo    oo****oo                      ",
"                      oo****oo    oo****oo                      ",
"                      oo****oo    oo****oo                      ",
"                      oo****oo    oo****oo                      ",
"                      oo****ooXXXXoo****oo                      ",
"                      oo****ooXXXXoo****oo                      ",
"                    XXoo****oo####oo****ooXX                    ",
"                    XXoo****oo####oo****ooXX                    ",
"                XXXX++oo**&&########&&**oo++XXXX                ",
"                XXXX++oo**&&########&&**oo++XXXX                ",
"            XXXX@@XXOO++################++OOXX@@XXXX            ",
"            XXXX@@XXOO++################++OOXX@@XXXX            ",
"          XX##@@@@XXOOOOOOOOOOOOOOOOOOOOOOOOXX@@@@##XX          ",
"          XX##@@@@XXOOOOOOOOOOOOOOOOOOOOOOOOXX@@@@##XX          ",
"          XX######@@++OOOOOOOOOOOOOOOOOOOO++########XX          ",
"          XX######@@++OOOOOOOOOOOOOOOOOOOO++########XX          ",
"            XX####################################XX            ",
"            XX####################################XX            ",
"              XXXXXX@@####################@@XXXXXX              ",
"              XXXXXX@@####################@@XXXXXX              ",
"                oo**XXXXXXXXXXXXXXXXXXXXXXXX**oo                ",
"                oo**XXXXXXXXXXXXXXXXXXXXXXXX**oo                ",
"              oo********************************oo              ",
"              oo********************************oo              ",
"              oo**********oo**********oo********oo              ",
"              oo**********oo**********oo********oo              ",
"              oo$$********oo**********oo******$$oo              ",
"              oo$$********oo**********oo******$$oo              ",
"              oo$$********oo**********oo******$$oo              ",
"              oo$$********oo**********oo******$$oo              ",
"              oo$$******====****%%****====****$$oo              ",
"              oo$$******====****%%****====****$$oo              ",
"                oo$$****====**oo**oo**====**$$..                ",
"                oo$$****====**oo**oo**====**$$..                ",
"                  oo************************..                  ",
"                  oo************************..                  ",
"                    oooooo************oooooo                    ",
"                    oooooo************oooooo                    ",
"                      oo****************oo                      ",
"                      oo****************oo                      ",
"                    oo********************oo                    ",
"                    oo********************oo                    ",
"                    oo**$$************$$**oo                    ",
"                    oo**$$************$$**oo                    ",
"                  oo****$$************$$****oo                  ",
"                  oo****$$************$$****oo                  ",
"                  oo****$$************$$****oo                  ",
"                  oo****$$************$$****oo                  ",
"                  oo****$$************$$****oo                  ",
"                  oo****$$************$$****oo                  ",
"                    oooo****************oooo                    ",
"                    oooo****************oooo                    ",
"                      oo**$$oooooooo$$**oo                      ",
"                      oo**$$oooooooo$$**oo                      ",
"                      oo**oo        oo**oo                      ",
"                      oo**oo        oo**oo                      ",
"                      oooo            oooo                      ",
"                      oooo            oooo                      ",
"                                                                ",
"                                                                "
};
