/* XPM */
static const char *output_3[] = {
/* columns rows colors chars-per-pixel */
"32 32 20 1 ",
"  c #1A0000",
". c #1E1C19",
"X c #2E2B27",
"o c #7C3106",
"O c #423D38",
"+ c #0B6901",
"@ c #4D4840",
"# c #BF0E0E",
"$ c #A51010",
"% c #9A3800",
"& c #AD3F00",
"* c #C30C0C",
"= c #D95763",
"- c #0E8F00",
"; c #8F843B",
": c #B4A84F",
"> c #D2D0CD",
", c #F8F2EB",
"< c #FFFBF6",
"1 c None",
/* pixels */
"11111111111111111111111111111111",
"11111111111111111111111111111111",
"11111111111111111111111111111111",
"11111111111111111111111111111111",
"11111111111111111111111111111111",
"1111111111  1 11111111 1  111111",
"111111111 &  % 111111 %  & 11111",
"111111111 o%oo X1111X oo%o 11111",
"1111111111   oo X11X oo   111111",
"111111111111##ooX..Xoo##11111111",
"11111111111*$$o<,<<<<o$$*1111111",
"11111111111$$,,,,,,,,,,$$1111111",
"1111111X111X,,,,,,,,,,,X11111111",
"111111X>X11X,,,,,-,,,,-,X1111111",
"111111X>X11X,,,,,+>>>>+,X1111111",
"111111X>X11XXXX,,>>>=>>,X1111111",
"11111X>>X11XX,,,,,>>>>,,X1111111",
"1111X,,X111X:XXX,,,,,,,X11111111",
"1111X,X1111X::X,,,,,,,X111111111",
"1111X,X1111X,::XXXXXXX1111111111",
"1111X,,X11X,,,:::::::X1111111111",
"1111X,,,XX,,,,,,,;,,,,XX11111111",
"1111X,,,,,,,,,,,,,,,,,>>X1111111",
"11111X,,,,,,,,,,,,,,,,>>X1111111",
"11111X,,,,,,,,,,,,,XXXXX11111111",
"111111XX,,,,,,,,,XX1111111111111",
"111111XX,,,,,,,,X111111111111111",
"111111X,,,,,,,XX1111111111111111",
"111111X>,@,>,X111111111111111111",
"11111X>>>O>>X1111111111111111111",
"11111X>>X>>X11111111111111111111",
"111111XXXXX111111111111111111111"
};
