/* XPM */
static const char *output_1[] = {
/* columns rows colors chars-per-pixel */
"32 32 20 1 ",
"  c #1A0000",
". c #1E1C19",
"X c #2E2B27",
"o c #7C3106",
"O c #423D38",
"+ c #0B6901",
"@ c #4D4840",
"# c #BF0E0E",
"$ c #A51010",
"% c #9A3800",
"& c #AD3F00",
"* c #C30C0C",
"= c #D95763",
"- c #0E8F00",
"; c #8F843B",
": c #B4A84F",
"> c #D2D0CD",
", c #F8F2EB",
"< c #FFFBF6",
"1 c None",
/* pixels */
"11111111111111111111111111111111",
"11111111111111111111111111111111",
"11111111111111111111111111111111",
"11111111111111111111111111111111",
"11111111111111111111111111111111",
"11111111111111111111111111111111",
"11111111111111111111111111111111",
"11111111111111111111111111111111",
"11111111111111111111111111111111",
"11111111111111111111111111111111",
"11111111111111111111111111111111",
"11111111111111111111111111111111",
"11111111111111111111111111111111",
"11111111111  1 11111111 1  11111",
"1111111111 &  % 111111 %  & 1111",
"1111X11111 o%oo X1111X oo%o 1111",
"111X>X11111   oo X11X oo   11111",
"111X>X1111111##ooX..Xoo##1111111",
"111X>X111111*$$o<,<<<<o$$*111111",
"11X>>X111111$$,,,,,,,,,,$$111111",
"1X,,X1111111X,,,,,,,,,,,X1111111",
"1X,X11111111X,,,,,-,,,,-,X111111",
"1X,X11111111X,,,,,+>>>>+,X111111",
"1X,,X1XXXX11XXXX,,>>>=>>,X111111",
"1X,,,X,,,,X11X,,,,,>>>>,,X111111",
"1X,,,,,,,,,XX:XXX,,,,,,,X1111111",
"11X,,,,,,,,,,::X,,,,,,,X11111111",
"11X,,,,,,,,,,,::XXXXXXX111111111",
"111XX,,,,,,,,,,:::::::1111111111",
"1111X,,,@>,,,,,,,,;,,X1111111111",
"1111X>>,O>>,O>>O>>>XX11111111111",
"11111XXX1XXX1XXX1XX1111111111111"
};
