/* XPM */
static const char *output_7[] = {
/* columns rows colors chars-per-pixel */
"32 32 21 1 ",
"  c #1A0000",
". c #1E1C19",
"X c #2E2B27",
"o c #7C3106",
"O c #423D38",
"+ c #0B6901",
"@ c #4D4840",
"# c #BF0E0E",
"$ c #A51010",
"% c #9A3800",
"& c #AD3F00",
"* c #C30C0C",
"= c #D95763",
"- c #0E8F00",
"; c #8F843B",
": c #B4A84F",
"> c #D2D0CD",
", c #E8E5E5",
"< c #F8F2EB",
"1 c #FFFBF6",
"2 c None",
/* pixels */
"22222222222222222222222222222222",
"22222222222222222222222222222222",
"22222222222222222222222222222222",
"2222222222  2 22222222 2  222222",
"222222222 &  % 222222 %  & 22222",
"222222222 o%oo X2222X oo%o 22222",
"2222222222   oo X22X oo   222222",
"222222222222##ooX..Xoo##22222222",
"22222222222*$$o1<1111o$$*2222222",
"22222222222$$<<<<<<<<<<$$2222222",
"222222X2222X<<<<<<<<<<<X22222222",
"22222X>X222X<<<<<-<<<<-<X2222222",
"22222X>X222X<<<<<+>>>>+<X2222222",
"22222X>X222XXXX<<>>>=>><X2222222",
"2222X>>X222XX<<<<<>>>><<X2222222",
"2222X<<X222X:XXX<<<<<<<X22222222",
"2222X<X2222X::X<<<<<<<X222222,22",
"2222X<X2222X<::XXXXXXX22222,2,22",
"2222X<<X22X<<<:::::::X22222,2,2,",
"2222X<<<XX<<<<<<<;<<<<XX22,22,2,",
"2222X<<<<<<<<<<<<<<<<<>>X,22,22,",
"22222X<<<<<<<<<<<<<<<<>>X22,22,2",
"22222X<<<<<<<<<<<<<XXXXX22222,22",
"222222XX<<<<<<<<<XX2222222222222",
"222222XX<<<<<<<<X222222222222222",
"222222X<<<<<<<XX2222222222222222",
"222222X><@<><X222222222222222222",
"22222X>>>O>>X2222222222222222222",
"22222X>>X>>X22222222222222222222",
"222222XXXXX222222222222222222222",
"22222222222222222222222222222222",
"22222222222222222222222222222222"
};
