/* XPM */
static char *c943c8b2ae8544bac3b510f6a8a2e1cew7Esa3eC3v1cMe7g[] = {
/* columns rows colors chars-per-pixel */
"64 64 13 1 ",
"  c None",
". c black",
"X c #241D0D",
"o c #222124",
"O c #714333",
"+ c #82634B",
"@ c #8A7357",
"# c #928263",
"$ c #A38D77",
"% c #A67596",
"& c #A99D86",
"* c #B9A48F",
"= c #C89E8F",
/* pixels */
"                                                                ",
"                                                                ",
"                                                                ",
"                                                                ",
"                        oooo        oooo                        ",
"                        oooo        oooo                        ",
"                      oo****oo    oo****oo                      ",
"                      oo****oo    oo****oo                      ",
"                      oo****oo    oo****oo                      ",
"                      oo****oo    oo****oo                      ",
"                      oo****ooXXXXoo****oo                      ",
"                      oo****ooXXXXoo****oo                      ",
"                    XXoo****oo####oo****ooXX                    ",
"                    XXoo****oo####oo****ooXX                    ",
"                XXXX++oo**&&########&&**oo++XXXX                ",
"                XXXX++oo**&&########&&**oo++XXXX                ",
"            XXXX@@XXOO++################++OOXX@@XXXX            ",
"            XXXX@@XXOO++################++OOXX@@XXXX            ",
"          XX##@@@@XXOOOOOOOOOOOOOOOOOOOOOOOOXX@@@@##XX          ",
"          XX##@@@@XXOOOOOOOOOOOOOOOOOOOOOOOOXX@@@@##XX          ",
"          XX######@@++OOOOOOOOOOOOOOOOOOOO++########XX          ",
"          XX######@@++OOOOOOOOOOOOOOOOOOOO++########XX          ",
"            XX####################################XX            ",
"            XX####################################XX            ",
"              XXXXXX@@####################@@XXXXXX              ",
"              XXXXXX@@####################@@XXXXXX              ",
"                oo**XXXXXXXXXXXXXXXXXXXXXXXX**oo                ",
"                oo**XXXXXXXXXXXXXXXXXXXXXXXX**oo                ",
"              oo********************************oo              ",
"              oo********************************oo              ",
"              oo**********oo**********oo********oo              ",
"              oo**********oo**********oo********oo              ",
"              oo$$********oo**********oo******$$oo              ",
"              oo$$********oo**********oo******$$oo              ",
"              oo$$********oo**********oo******$$oo              ",
"              oo$$********oo**********oo******$$oo              ",
"              oo$$******====****%%****====****$$oo              ",
"              oo$$******====****%%****====****$$oo              ",
"                oo$$****====**oo**oo**====**$$..                ",
"                oo$$****====**oo**oo**====**$$..                ",
"                  oo************************..                  ",
"                  oo************************..                  ",
"                      oooo************oooo                      ",
"                      oooo************oooo                      ",
"                    oo********************oo                    ",
"                    oo********************oo                    ",
"                  oo****$$************$$****oo                  ",
"                  oo****$$************$$****oo                  ",
"                  oo****$$************$$****oo                  ",
"                  oo****$$************$$****oo                  ",
"                  oo****$$************$$****oo                  ",
"                  oo****$$************$$****oo                  ",
"                    oooo****************oooo                    ",
"                    oooo****************oooo                    ",
"                      oo**$$oooooooo$$**oo                      ",
"                      oo**$$oooooooo$$**oo                      ",
"                      oo**oo        oo**oo                      ",
"                      oo**oo        oo**oo                      ",
"                      oooo            oooo                      ",
"                      oooo            oooo                      ",
"                                                                ",
"                                                                ",
"                                                                ",
"                                                                "
};
